<mxfile host="app.diagrams.net" agent="Mozilla/5.0 (Windows NT 10.0; Win64; x64) AppleWebKit/537.36 (KHTML, like Gecko) Chrome/129.0.0.0 Safari/537.36" version="24.8.3">
  <diagram name="Page-1" id="KqcELbm5QPPg4-4hKjFx">
    <mxGraphModel dx="1050" dy="1657" grid="1" gridSize="10" guides="1" tooltips="1" connect="1" arrows="1" fold="1" page="1" pageScale="1" pageWidth="850" pageHeight="1100" math="0" shadow="0">
      <root>
        <mxCell id="0" />
        <mxCell id="1" parent="0" />
        <mxCell id="3NXYD12o6hMY3Nq8djct-53" value="" style="rounded=0;whiteSpace=wrap;html=1;fillColor=none;" parent="1" vertex="1">
          <mxGeometry x="130" y="-40" width="590" height="570" as="geometry" />
        </mxCell>
        <mxCell id="3NXYD12o6hMY3Nq8djct-25" style="edgeStyle=orthogonalEdgeStyle;rounded=0;orthogonalLoop=1;jettySize=auto;html=1;entryX=0;entryY=0.5;entryDx=0;entryDy=0;exitX=1;exitY=0.3333333333333333;exitDx=0;exitDy=0;exitPerimeter=0;" parent="1" source="3NXYD12o6hMY3Nq8djct-1" target="3NXYD12o6hMY3Nq8djct-22" edge="1">
          <mxGeometry relative="1" as="geometry" />
        </mxCell>
        <mxCell id="3NXYD12o6hMY3Nq8djct-1" value="User" style="shape=umlActor;verticalLabelPosition=bottom;verticalAlign=top;html=1;outlineConnect=0;" parent="1" vertex="1">
          <mxGeometry x="60" y="210" width="50" height="90" as="geometry" />
        </mxCell>
        <mxCell id="3NXYD12o6hMY3Nq8djct-11" value="" style="edgeStyle=orthogonalEdgeStyle;rounded=0;orthogonalLoop=1;jettySize=auto;html=1;dashed=1;" parent="1" source="3NXYD12o6hMY3Nq8djct-6" target="3NXYD12o6hMY3Nq8djct-10" edge="1">
          <mxGeometry relative="1" as="geometry">
            <Array as="points">
              <mxPoint x="560" y="190" />
              <mxPoint x="395" y="190" />
            </Array>
          </mxGeometry>
        </mxCell>
        <mxCell id="3NXYD12o6hMY3Nq8djct-19" value="&amp;lt;&amp;lt;Optional&amp;gt;&amp;gt;" style="edgeLabel;html=1;align=center;verticalAlign=middle;resizable=0;points=[];" parent="3NXYD12o6hMY3Nq8djct-11" vertex="1" connectable="0">
          <mxGeometry x="0.1859" relative="1" as="geometry">
            <mxPoint as="offset" />
          </mxGeometry>
        </mxCell>
        <mxCell id="3NXYD12o6hMY3Nq8djct-40" style="edgeStyle=orthogonalEdgeStyle;rounded=0;orthogonalLoop=1;jettySize=auto;html=1;entryX=1;entryY=0.5;entryDx=0;entryDy=0;dashed=1;" parent="1" source="3NXYD12o6hMY3Nq8djct-6" target="3NXYD12o6hMY3Nq8djct-39" edge="1">
          <mxGeometry relative="1" as="geometry" />
        </mxCell>
        <mxCell id="3NXYD12o6hMY3Nq8djct-43" style="edgeStyle=orthogonalEdgeStyle;rounded=0;orthogonalLoop=1;jettySize=auto;html=1;entryX=1;entryY=0.5;entryDx=0;entryDy=0;dashed=1;" parent="1" source="3NXYD12o6hMY3Nq8djct-6" target="3NXYD12o6hMY3Nq8djct-42" edge="1">
          <mxGeometry relative="1" as="geometry" />
        </mxCell>
        <mxCell id="3NXYD12o6hMY3Nq8djct-48" value="&amp;lt;&amp;lt;Optional&amp;gt;&amp;gt;" style="edgeLabel;html=1;align=center;verticalAlign=middle;resizable=0;points=[];" parent="3NXYD12o6hMY3Nq8djct-43" vertex="1" connectable="0">
          <mxGeometry x="-0.6731" y="-3" relative="1" as="geometry">
            <mxPoint as="offset" />
          </mxGeometry>
        </mxCell>
        <mxCell id="3NXYD12o6hMY3Nq8djct-6" value="&lt;font style=&quot;font-size: 18px;&quot;&gt;Add outfit&lt;/font&gt;" style="ellipse;whiteSpace=wrap;html=1;" parent="1" vertex="1">
          <mxGeometry x="520" y="70" width="120" height="80" as="geometry" />
        </mxCell>
        <mxCell id="3NXYD12o6hMY3Nq8djct-7" value="&lt;font style=&quot;font-size: 18px;&quot;&gt;Delete outfit&lt;/font&gt;" style="ellipse;whiteSpace=wrap;html=1;" parent="1" vertex="1">
          <mxGeometry x="530" y="430" width="120" height="80" as="geometry" />
        </mxCell>
        <mxCell id="3NXYD12o6hMY3Nq8djct-20" style="edgeStyle=orthogonalEdgeStyle;rounded=0;orthogonalLoop=1;jettySize=auto;html=1;entryX=0.5;entryY=1;entryDx=0;entryDy=0;dashed=1;" parent="1" source="3NXYD12o6hMY3Nq8djct-8" target="3NXYD12o6hMY3Nq8djct-10" edge="1">
          <mxGeometry relative="1" as="geometry">
            <Array as="points">
              <mxPoint x="560" y="300" />
              <mxPoint x="395" y="300" />
            </Array>
          </mxGeometry>
        </mxCell>
        <mxCell id="3NXYD12o6hMY3Nq8djct-21" value="&amp;lt;&amp;lt;Optional&amp;gt;&amp;gt;" style="edgeLabel;html=1;align=center;verticalAlign=middle;resizable=0;points=[];" parent="3NXYD12o6hMY3Nq8djct-20" vertex="1" connectable="0">
          <mxGeometry x="0.159" y="-2" relative="1" as="geometry">
            <mxPoint as="offset" />
          </mxGeometry>
        </mxCell>
        <mxCell id="3NXYD12o6hMY3Nq8djct-8" value="&lt;font style=&quot;font-size: 18px;&quot;&gt;Update outfit&lt;/font&gt;" style="ellipse;whiteSpace=wrap;html=1;" parent="1" vertex="1">
          <mxGeometry x="530" y="300" width="120" height="80" as="geometry" />
        </mxCell>
        <mxCell id="3NXYD12o6hMY3Nq8djct-9" value="Outfit list" style="shape=umlActor;verticalLabelPosition=bottom;verticalAlign=top;html=1;outlineConnect=0;" parent="1" vertex="1">
          <mxGeometry x="760" y="50" width="50" height="90" as="geometry" />
        </mxCell>
        <mxCell id="3NXYD12o6hMY3Nq8djct-10" value="&lt;font style=&quot;font-size: 18px;&quot;&gt;Weather app&lt;/font&gt;" style="ellipse;whiteSpace=wrap;html=1;" parent="1" vertex="1">
          <mxGeometry x="330" y="210" width="130" height="60" as="geometry" />
        </mxCell>
        <mxCell id="3NXYD12o6hMY3Nq8djct-17" style="edgeStyle=orthogonalEdgeStyle;rounded=0;orthogonalLoop=1;jettySize=auto;html=1;entryX=0;entryY=0.5;entryDx=0;entryDy=0;" parent="1" source="3NXYD12o6hMY3Nq8djct-15" target="3NXYD12o6hMY3Nq8djct-7" edge="1">
          <mxGeometry relative="1" as="geometry">
            <Array as="points">
              <mxPoint x="420" y="410" />
              <mxPoint x="420" y="470" />
            </Array>
          </mxGeometry>
        </mxCell>
        <mxCell id="3NXYD12o6hMY3Nq8djct-49" value="&amp;lt;&amp;lt;Confirmation required&amp;gt;&amp;gt;" style="edgeLabel;html=1;align=center;verticalAlign=middle;resizable=0;points=[];" parent="3NXYD12o6hMY3Nq8djct-17" vertex="1" connectable="0">
          <mxGeometry x="0.5986" y="-1" relative="1" as="geometry">
            <mxPoint as="offset" />
          </mxGeometry>
        </mxCell>
        <mxCell id="3NXYD12o6hMY3Nq8djct-18" style="edgeStyle=orthogonalEdgeStyle;rounded=0;orthogonalLoop=1;jettySize=auto;html=1;entryX=0;entryY=0.5;entryDx=0;entryDy=0;" parent="1" source="3NXYD12o6hMY3Nq8djct-15" target="3NXYD12o6hMY3Nq8djct-8" edge="1">
          <mxGeometry relative="1" as="geometry">
            <Array as="points">
              <mxPoint x="420" y="410" />
              <mxPoint x="420" y="350" />
            </Array>
          </mxGeometry>
        </mxCell>
        <mxCell id="3NXYD12o6hMY3Nq8djct-46" value="&amp;lt;&amp;lt;IF OUTFIT EXISTS&amp;gt;&amp;gt;" style="edgeLabel;html=1;align=center;verticalAlign=middle;resizable=0;points=[];" parent="3NXYD12o6hMY3Nq8djct-18" vertex="1" connectable="0">
          <mxGeometry x="-0.5267" relative="1" as="geometry">
            <mxPoint as="offset" />
          </mxGeometry>
        </mxCell>
        <mxCell id="3NXYD12o6hMY3Nq8djct-15" value="&lt;font style=&quot;font-size: 18px;&quot;&gt;See outfit&lt;/font&gt;" style="ellipse;whiteSpace=wrap;html=1;" parent="1" vertex="1">
          <mxGeometry x="160" y="370" width="120" height="80" as="geometry" />
        </mxCell>
        <mxCell id="3NXYD12o6hMY3Nq8djct-24" style="edgeStyle=orthogonalEdgeStyle;rounded=0;orthogonalLoop=1;jettySize=auto;html=1;entryX=0.5;entryY=0;entryDx=0;entryDy=0;" parent="1" source="3NXYD12o6hMY3Nq8djct-22" target="3NXYD12o6hMY3Nq8djct-15" edge="1">
          <mxGeometry relative="1" as="geometry" />
        </mxCell>
        <mxCell id="3NXYD12o6hMY3Nq8djct-50" style="edgeStyle=orthogonalEdgeStyle;rounded=0;orthogonalLoop=1;jettySize=auto;html=1;entryX=0.5;entryY=1;entryDx=0;entryDy=0;" parent="1" source="3NXYD12o6hMY3Nq8djct-22" target="3NXYD12o6hMY3Nq8djct-6" edge="1">
          <mxGeometry relative="1" as="geometry">
            <Array as="points">
              <mxPoint x="230" y="160" />
              <mxPoint x="580" y="160" />
            </Array>
          </mxGeometry>
        </mxCell>
        <mxCell id="3NXYD12o6hMY3Nq8djct-22" value="&lt;font style=&quot;font-size: 18px;&quot;&gt;Choose date&lt;/font&gt;" style="ellipse;whiteSpace=wrap;html=1;" parent="1" vertex="1">
          <mxGeometry x="170" y="200" width="120" height="80" as="geometry" />
        </mxCell>
        <mxCell id="3NXYD12o6hMY3Nq8djct-33" value="" style="endArrow=none;html=1;rounded=0;exitX=1;exitY=0.5;exitDx=0;exitDy=0;entryX=0;entryY=0.3333333333333333;entryDx=0;entryDy=0;entryPerimeter=0;" parent="1" source="3NXYD12o6hMY3Nq8djct-6" target="3NXYD12o6hMY3Nq8djct-9" edge="1">
          <mxGeometry width="50" height="50" relative="1" as="geometry">
            <mxPoint x="400" y="310" as="sourcePoint" />
            <mxPoint x="450" y="260" as="targetPoint" />
          </mxGeometry>
        </mxCell>
        <mxCell id="3NXYD12o6hMY3Nq8djct-34" value="" style="endArrow=none;html=1;rounded=0;exitX=1;exitY=0.5;exitDx=0;exitDy=0;entryX=0;entryY=0.3333333333333333;entryDx=0;entryDy=0;entryPerimeter=0;" parent="1" source="3NXYD12o6hMY3Nq8djct-8" target="3NXYD12o6hMY3Nq8djct-9" edge="1">
          <mxGeometry width="50" height="50" relative="1" as="geometry">
            <mxPoint x="400" y="310" as="sourcePoint" />
            <mxPoint x="450" y="260" as="targetPoint" />
          </mxGeometry>
        </mxCell>
        <mxCell id="3NXYD12o6hMY3Nq8djct-36" value="Weather API" style="shape=umlActor;verticalLabelPosition=bottom;verticalAlign=top;html=1;outlineConnect=0;" parent="1" vertex="1">
          <mxGeometry x="760" y="210" width="50" height="90" as="geometry" />
        </mxCell>
        <mxCell id="3NXYD12o6hMY3Nq8djct-37" value="" style="endArrow=none;html=1;rounded=0;exitX=1;exitY=0.5;exitDx=0;exitDy=0;entryX=0;entryY=0.3333333333333333;entryDx=0;entryDy=0;entryPerimeter=0;" parent="1" source="3NXYD12o6hMY3Nq8djct-10" target="3NXYD12o6hMY3Nq8djct-36" edge="1">
          <mxGeometry width="50" height="50" relative="1" as="geometry">
            <mxPoint x="400" y="330" as="sourcePoint" />
            <mxPoint x="450" y="280" as="targetPoint" />
          </mxGeometry>
        </mxCell>
        <mxCell id="3NXYD12o6hMY3Nq8djct-47" value="&amp;lt;&amp;lt;If weather is available&amp;gt;&amp;gt;" style="edgeLabel;html=1;align=center;verticalAlign=middle;resizable=0;points=[];" parent="3NXYD12o6hMY3Nq8djct-37" vertex="1" connectable="0">
          <mxGeometry x="-0.0413" y="-2" relative="1" as="geometry">
            <mxPoint as="offset" />
          </mxGeometry>
        </mxCell>
        <mxCell id="3NXYD12o6hMY3Nq8djct-39" value="&lt;font style=&quot;font-size: 18px;&quot;&gt;Save outfit template&lt;/font&gt;" style="ellipse;whiteSpace=wrap;html=1;" parent="1" vertex="1">
          <mxGeometry x="160" y="70" width="120" height="80" as="geometry" />
        </mxCell>
        <mxCell id="3NXYD12o6hMY3Nq8djct-42" value="&lt;font style=&quot;font-size: 18px;&quot;&gt;Search outfit history&lt;/font&gt;" style="ellipse;whiteSpace=wrap;html=1;" parent="1" vertex="1">
          <mxGeometry x="230" y="-30" width="120" height="80" as="geometry" />
        </mxCell>
      </root>
    </mxGraphModel>
  </diagram>
</mxfile>
